HIERARCHY
ROOT Hips
{
	OFFSET 0.000000 0.000000 0.000000
	CHANNELS 6 Xposition Yposition Zposition Xrotation Yrotation Zrotation
	JOINT LeftUpLeg_virtual
	{
		OFFSET 0.000000 0.000000 0.000000
		CHANNELS 3 Xrotation Yrotation Zrotation
		JOINT LeftUpLeg
		{
			OFFSET 15.427100 -6.655098 0.678600
			CHANNELS 3 Xrotation Yrotation Zrotation
			JOINT LeftLeg
			{
				OFFSET 4.081073 -39.591068 13.024000
				CHANNELS 3 Xrotation Yrotation Zrotation
				JOINT LeftFoot
				{
					OFFSET -4.081074 -37.707932 -15.979700
					CHANNELS 3 Xrotation Yrotation Zrotation
					JOINT LeftToeBase
					{
						OFFSET 5.346399 -15.068900 20.645000
						CHANNELS 3 Xrotation Yrotation Zrotation
						JOINT LeftToe_End
						{
							OFFSET 2.754700 0.931300 11.300900
							CHANNELS 3 Xrotation Yrotation Zrotation
							End Site
							{
								OFFSET 0 0 0
							}
						}
					}
				}
			}
		}
	}
	JOINT RightUpLeg_virtual
	{
		OFFSET 0.000000 0.000000 0.000000
		CHANNELS 3 Xrotation Yrotation Zrotation
		JOINT RightUpLeg
		{
			OFFSET -15.569500 -6.655098 0.678600
			CHANNELS 3 Xrotation Yrotation Zrotation
			JOINT RightLeg
			{
				OFFSET -4.081825 -39.591045 13.023800
				CHANNELS 3 Xrotation Yrotation Zrotation
				JOINT RightFoot
				{
					OFFSET 4.081824 -37.707954 -15.979600
					CHANNELS 3 Xrotation Yrotation Zrotation
					JOINT RightToeBase
					{
						OFFSET -5.346400 -15.068900 20.645000
						CHANNELS 3 Xrotation Yrotation Zrotation
						JOINT RightToe_End
						{
							OFFSET -2.754700 0.931300 11.300900
							CHANNELS 3 Xrotation Yrotation Zrotation
							End Site
							{
								OFFSET 0 0 0
							}
						}
					}
				}
			}
		}
	}
	JOINT Spine_virtual
	{
		OFFSET 0.000000 0.000000 0.000000
		CHANNELS 3 Xrotation Yrotation Zrotation
		JOINT Spine
		{
			OFFSET -0.279200 12.230698 -2.892100
			CHANNELS 3 Xrotation Yrotation Zrotation
			JOINT Spine1
			{
				OFFSET -0.232667 10.192268 -1.242267
				CHANNELS 3 Xrotation Yrotation Zrotation
				JOINT Spine1_split
				{
					OFFSET -0.232667 10.192268 -1.242267
					CHANNELS 3 Xrotation Yrotation Zrotation
					JOINT Spine2
					{
						OFFSET -0.232667 10.192268 -1.242267
						CHANNELS 3 Xrotation Yrotation Zrotation
						JOINT Neck_virtual
						{
							OFFSET 0.000000 0.000000 0.000000
							CHANNELS 3 Xrotation Yrotation Zrotation
							JOINT Neck
							{
								OFFSET -0.418800 17.814194 8.416900
								CHANNELS 3 Xrotation Yrotation Zrotation
								JOINT Head
								{
									OFFSET 0.000000 7.031097 3.806800
									CHANNELS 3 Xrotation Yrotation Zrotation
									JOINT HeadTop_End
									{
										OFFSET 0.000000 24.646606 12.978600
										CHANNELS 3 Xrotation Yrotation Zrotation
										End Site
										{
											OFFSET 0 0 0
										}
									}
								}
							}
						}
						JOINT LeftShoulder_virtual
						{
							OFFSET 0.000000 0.000000 0.000000
							CHANNELS 3 Xrotation Yrotation Zrotation
							JOINT LeftShoulder
							{
								OFFSET 8.476499 7.247704 -3.868750
								CHANNELS 3 Xrotation Yrotation Zrotation
								JOINT LeftShoulder_split
								{
									OFFSET 8.476499 7.247704 -3.868750
									CHANNELS 3 Xrotation Yrotation Zrotation
									JOINT LeftArm
									{
										OFFSET 9.308998 -2.777710 0.208600
										CHANNELS 3 Xrotation Yrotation Zrotation
										JOINT LeftForeArm
										{
											OFFSET 29.972298 0.000000 0.000000
											CHANNELS 3 Xrotation Yrotation Zrotation
											JOINT LeftHand
											{
												OFFSET 26.026505 0.000000 0.000000
												CHANNELS 3 Xrotation Yrotation Zrotation
												End Site
												{
													OFFSET 0 0 0
												}
											}
										}
									}
								}
							}
						}
						JOINT RightShoulder_virtual
						{
							OFFSET 0.000000 0.000000 0.000000
							CHANNELS 3 Xrotation Yrotation Zrotation
							JOINT RightShoulder
							{
								OFFSET -7.570500 7.247704 -3.868750
								CHANNELS 3 Xrotation Yrotation Zrotation
								JOINT RightShoulder_split
								{
									OFFSET -7.570500 7.247704 -3.868750
									CHANNELS 3 Xrotation Yrotation Zrotation
									JOINT RightArm
									{
										OFFSET -9.308998 -2.777710 0.208500
										CHANNELS 3 Xrotation Yrotation Zrotation
										JOINT RightForeArm
										{
											OFFSET -29.972300 0.000000 0.000000
											CHANNELS 3 Xrotation Yrotation Zrotation
											JOINT RightHand
											{
												OFFSET -26.026505 0.000000 0.000000
												CHANNELS 3 Xrotation Yrotation Zrotation
												End Site
												{
													OFFSET 0 0 0
												}
											}
										}
									}
								}
							}
						}
					}
				}
			}
		}
	}
}
MOTION
Frames: 11
Frame Time: 0.03333333
-31.661924 42.166969 284.926208 0.000000 0.000000 0.000000 -172.761917 15.292425 -179.863606 -91.549834 -11.738746 34.329388 92.972071 -6.493786 -7.015455 11.918122 -7.830242 11.584227 -4.735456 0.674046 -0.529412 0.000000 0.000000 0.000000 -172.909217 13.875378 179.195463 -85.180259 18.177348 -30.049779 95.455220 6.027842 7.932845 -2.219448 3.126994 -6.879722 5.918183 1.776183 1.421593 0.000000 0.000000 0.000000 -172.981822 16.153850 -178.526460 18.342767 -4.104232 -7.752398 4.245672 -0.244388 -2.612167 0.873432 -0.456690 0.446014 0.000000 0.000000 0.000000 4.802218 -0.763262 -1.821059 -1.583712 -0.183405 -1.063619 -20.058363 0.030024 7.674626 0.000000 0.000000 0.000000 3.921049 -0.489166 -2.415743 1.026638 -2.760696 -11.306932 -3.417216 0.079784 1.664634 -15.259075 -40.127949 -44.493382 0.452399 -58.679576 0.975923 0.000000 0.000000 0.000000 5.006879 -0.613836 -1.880284 -2.723629 19.450968 -1.108956 -1.389982 0.942465 0.600258 -25.641432 26.225760 30.320371 -179.780565 68.987260 179.569102 0.000000 0.000000 0.000000 
-31.646145 42.166832 284.905273 0.000000 0.000000 0.000000 -172.801778 15.343197 -179.903317 -91.585194 -11.804288 34.287816 93.045037 -6.496628 -7.019268 11.929088 -7.789995 11.611832 -4.740999 0.676084 -0.566858 0.000000 0.000000 0.000000 -172.955689 13.896194 179.164126 -85.257146 18.084225 -30.074501 95.435624 6.031670 7.972853 -2.183421 3.091596 -6.896730 5.942523 1.767557 1.421228 0.000000 0.000000 0.000000 -173.027789 16.187917 -178.533768 18.263972 -4.048317 -7.789007 4.217192 -0.231047 -2.616826 0.872873 -0.462449 0.450506 0.000000 0.000000 0.000000 4.773988 -0.734147 -1.850797 -1.564045 -0.316785 -0.997873 -20.811576 -0.124399 7.761442 0.000000 0.000000 0.000000 3.939201 -0.479212 -2.426948 1.009410 -2.756735 -11.312034 -3.613643 0.178939 1.592385 -15.213148 -40.245322 -44.436395 0.521525 -58.542351 1.044464 0.000000 0.000000 0.000000 4.995705 -0.590427 -1.903399 -3.038029 18.619330 -2.010165 -1.311756 0.903659 0.613510 -27.305694 26.476303 30.834329 179.960199 68.118645 179.955827 0.000000 0.000000 0.000000 
-31.634823 42.168732 284.893494 0.000000 0.000000 0.000000 -172.841448 15.410937 -179.957671 -91.626400 -11.866635 34.237809 93.104303 -6.490415 -7.002243 11.953056 -7.746824 11.628538 -4.751137 0.676913 -0.602724 0.000000 0.000000 0.000000 -173.000045 13.939254 179.117012 -85.332770 17.978981 -30.101299 95.426055 6.036221 8.009638 -2.132434 3.048372 -6.908514 5.958328 1.758852 1.418590 0.000000 0.000000 0.000000 -173.071065 16.245723 -178.564395 18.182915 -4.005208 -7.806239 4.195731 -0.228556 -2.613239 0.872465 -0.478859 0.455036 0.000000 0.000000 0.000000 4.753896 -0.712597 -1.871987 -1.557045 -0.441800 -0.941436 -21.518987 -0.301567 7.840817 0.000000 0.000000 0.000000 3.977707 -0.483826 -2.425969 0.989224 -2.777544 -11.364754 -3.801202 0.239485 1.550317 -15.104724 -40.349715 -44.376446 0.572104 -58.458981 1.072815 0.000000 0.000000 0.000000 4.990370 -0.579573 -1.915297 -3.309972 17.913964 -2.712140 -1.197080 0.849642 0.584502 -28.805544 26.756013 31.156615 179.825220 67.542559 -179.783037 0.000000 0.000000 0.000000 
-31.631840 42.175091 284.888977 0.000000 0.000000 0.000000 -172.882142 15.499229 179.979706 -91.673447 -11.917852 34.176829 93.140066 -6.478422 -6.968362 11.992683 -7.707417 11.629286 -4.774019 0.674609 -0.629726 0.000000 0.000000 0.000000 -173.042132 14.011126 179.057576 -85.399563 17.868948 -30.130150 95.418193 6.035630 8.044224 -2.086806 2.996838 -6.930108 5.989755 1.750673 1.417122 0.000000 0.000000 0.000000 -173.110380 16.325837 -178.619228 18.098680 -3.973423 -7.805396 4.182312 -0.235456 -2.601501 0.894019 -0.495943 0.449433 0.000000 0.000000 0.000000 4.742082 -0.699335 -1.882242 -1.556153 -0.558387 -0.898392 -22.184842 -0.496346 7.905923 0.000000 0.000000 0.000000 4.026545 -0.498180 -2.413040 0.967158 -2.822707 -11.447274 -4.004765 0.262146 1.548658 -14.943853 -40.433029 -44.300426 0.575802 -58.406204 1.044600 0.000000 0.000000 0.000000 4.986409 -0.579735 -1.915481 -3.541909 17.309940 -3.257438 -1.062604 0.759746 0.532143 -30.169253 27.076031 31.328930 179.781261 67.097900 -179.627541 0.000000 0.000000 0.000000 
-31.636219 42.183144 284.891357 0.000000 0.000000 0.000000 -172.921716 15.607614 179.912538 -91.722221 -11.956664 34.101632 93.153719 -6.464018 -6.921221 12.046166 -7.671957 11.618161 -4.806057 0.668739 -0.648211 0.000000 0.000000 0.000000 -173.082185 14.110776 178.994779 -85.455468 17.766811 -30.161221 95.410612 6.029161 8.075964 -2.050646 2.942137 -6.966517 6.038221 1.743497 1.418809 0.000000 0.000000 0.000000 -173.145883 16.421914 -178.689442 18.010553 -3.950453 -7.792249 4.175587 -0.247778 -2.584815 0.935054 -0.522670 0.439817 0.000000 0.000000 0.000000 4.734582 -0.693548 -1.884216 -1.555545 -0.667217 -0.870467 -22.809685 -0.696878 7.951727 0.000000 0.000000 0.000000 4.077471 -0.517767 -2.393181 0.945634 -2.883903 -11.537940 -4.213315 0.264232 1.575450 -14.753306 -40.484485 -44.206244 0.516030 -58.349309 0.960730 0.000000 0.000000 0.000000 4.980173 -0.588003 -1.907364 -3.747308 16.768345 -3.709238 -0.960297 0.629561 0.462443 -31.437742 27.426579 31.431305 179.796834 66.663924 -179.562204 0.000000 0.000000 0.000000 
-31.648657 42.191505 284.898621 0.000000 0.000000 0.000000 -172.959473 15.731406 179.848539 -91.769199 -11.984410 34.012115 93.148105 -6.448699 -6.868112 12.103571 -7.637956 11.599684 -4.833259 0.659458 -0.663387 0.000000 0.000000 0.000000 -173.120174 14.226925 178.933908 -85.504673 17.684126 -30.196690 95.402423 6.021286 8.102637 -2.011974 2.890551 -7.004535 6.086376 1.737117 1.422083 0.000000 0.000000 0.000000 -173.176223 16.529488 -178.769219 17.920666 -3.933512 -7.774797 4.172238 -0.261640 -2.567117 0.975984 -0.536257 0.428615 0.000000 0.000000 0.000000 4.724430 -0.692361 -1.880535 -1.549404 -0.770421 -0.857124 -23.392018 -0.892817 7.979801 0.000000 0.000000 0.000000 4.119126 -0.538518 -2.372556 0.925254 -2.951431 -11.627917 -4.415131 0.256216 1.623150 -14.545962 -40.491434 -44.083513 0.395472 -58.247307 0.832353 0.000000 0.000000 0.000000 4.968282 -0.599623 -1.895922 -3.939975 16.261156 -4.121371 -0.864109 0.511146 0.363106 -32.668341 27.744963 31.553319 179.846503 66.212359 -179.570864 0.000000 0.000000 0.000000 
-31.665716 42.199959 284.906311 0.000000 0.000000 0.000000 -172.995427 15.860666 179.793952 -91.808534 -12.007029 33.909420 93.129452 -6.432661 -6.817846 12.151269 -7.600711 11.580873 -4.846121 0.647232 -0.681934 0.000000 0.000000 0.000000 -173.156524 14.350458 178.879280 -85.551589 17.625303 -30.232135 95.392772 6.020209 8.118499 -1.967486 2.854051 -7.020044 6.115560 1.730556 1.423666 0.000000 0.000000 0.000000 -173.202369 16.643327 -178.845239 17.830704 -3.920695 -7.760455 4.168889 -0.274642 -2.549591 1.014705 -0.554079 0.431330 0.000000 0.000000 0.000000 4.706459 -0.694682 -1.875933 -1.541478 -0.871157 -0.855222 -23.942390 -1.075286 7.985525 0.000000 0.000000 0.000000 4.146925 -0.556887 -2.357112 0.905821 -3.015511 -11.710656 -4.587742 0.246932 1.666491 -14.352703 -40.463410 -43.955122 0.234070 -58.094994 0.685086 0.000000 0.000000 0.000000 4.950372 -0.610378 -1.884715 -4.137780 15.770601 -4.532690 -0.769302 0.411204 0.272152 -33.859823 27.996406 31.751282 179.890503 65.785022 -179.616736 0.000000 0.000000 0.000000 
-31.684929 42.206940 284.908630 0.000000 0.000000 0.000000 -173.029865 15.984975 179.753722 -91.838239 -12.030104 33.797747 93.100703 -6.419161 -6.775898 12.181241 -7.560246 11.563205 -4.846813 0.633144 -0.704943 0.000000 0.000000 0.000000 -173.192000 14.469399 178.835389 -85.594346 17.588328 -30.266303 95.385026 6.028916 8.121702 -1.923466 2.840467 -7.007771 6.125031 1.723894 1.422011 0.000000 0.000000 0.000000 -173.225414 16.756863 -178.906874 17.743650 -3.912171 -7.755424 4.163118 -0.285509 -2.534046 1.035035 -0.569711 0.454625 0.000000 0.000000 0.000000 4.680738 -0.698873 -1.872609 -1.532599 -0.967937 -0.863969 -24.466665 -1.232635 7.964528 0.000000 0.000000 0.000000 4.156105 -0.572933 -2.348447 0.885511 -3.067684 -11.789536 -4.716515 0.215963 1.692120 -14.172048 -40.419980 -43.824802 0.076294 -57.930755 0.555061 0.000000 0.000000 0.000000 4.925327 -0.618778 -1.875365 -4.353155 15.285830 -4.953114 -0.656207 0.345379 0.190271 -34.981599 28.158700 32.054959 179.920679 65.448553 -179.684614 0.000000 0.000000 0.000000 
-31.701868 42.213989 284.903442 0.000000 0.000000 0.000000 -173.063702 16.098932 179.728983 -91.859228 -12.060231 33.686725 93.064080 -6.414935 -6.747694 12.198452 -7.523143 11.541800 -4.848550 0.617650 -0.728382 0.000000 0.000000 0.000000 -173.226356 14.577613 178.800637 -85.631851 17.562112 -30.297954 95.383831 6.042928 8.117940 -1.891723 2.846503 -6.981634 6.139758 1.717722 1.418310 0.000000 0.000000 0.000000 -173.246546 16.866510 -178.950560 17.659809 -3.908702 -7.763143 4.157404 -0.293543 -2.520703 1.048540 -0.576191 0.469916 0.000000 0.000000 0.000000 4.651348 -0.703858 -1.871388 -1.528802 -1.059633 -0.885271 -24.973251 -1.352285 7.910112 0.000000 0.000000 0.000000 4.148100 -0.585037 -2.345019 0.863274 -3.104767 -11.870469 -4.815320 0.165622 1.699602 -14.004301 -40.378484 -43.694841 -0.045040 -57.783394 0.465967 0.000000 0.000000 0.000000 4.894360 -0.624666 -1.868023 -4.596363 14.802657 -5.379990 -0.526600 0.303248 0.143419 -35.982727 28.239543 32.448200 179.931362 65.250416 -179.751031 0.000000 0.000000 0.000000 
-31.715937 42.220013 284.888611 0.000000 0.000000 0.000000 -173.096542 16.203073 179.715500 -91.873318 -12.102211 33.583251 93.024267 -6.424847 -6.735065 12.213344 -7.492185 11.516618 -4.860230 0.601066 -0.748595 0.000000 0.000000 0.000000 -173.258608 14.671144 178.772921 -85.665756 17.538266 -30.325709 95.389712 6.057959 8.112314 -1.878134 2.867758 -6.955167 6.182809 1.712729 1.414775 0.000000 0.000000 0.000000 -173.268567 16.964781 -178.974848 17.577089 -3.912214 -7.783893 4.154785 -0.298851 -2.510217 1.059332 -0.594978 0.489616 0.000000 0.000000 0.000000 4.624303 -0.709163 -1.872704 -1.533464 -1.142027 -0.918993 -25.462267 -1.421778 7.816930 0.000000 0.000000 0.000000 4.128972 -0.593896 -2.344135 0.838011 -3.128365 -11.951486 -4.896301 0.119494 1.691981 -13.857837 -40.340716 -43.575104 -0.117601 -57.666713 0.425054 0.000000 0.000000 0.000000 4.860442 -0.627795 -1.861802 -4.873610 14.317473 -5.798098 -0.405197 0.270442 0.137408 -36.841624 28.274910 32.893914 179.932372 65.165824 -179.811219 0.000000 0.000000 0.000000 
-31.725046 42.225235 284.863770 0.000000 0.000000 0.000000 -173.128165 16.300240 179.708178 -91.884288 -12.155423 33.491040 92.986038 -6.449449 -6.734494 12.228835 -7.467454 11.491261 -4.873030 0.583923 -0.766382 0.000000 0.000000 0.000000 -173.288101 14.746023 178.751337 -85.700064 17.514871 -30.349392 95.400380 6.072638 8.108923 -1.873305 2.898461 -6.933318 6.247988 1.709246 1.413677 0.000000 0.000000 0.000000 -173.290492 17.050141 -178.987348 17.491816 -3.923223 -7.815875 4.157216 -0.302321 -2.503537 1.074465 -0.605372 0.494008 0.000000 0.000000 0.000000 4.605220 -0.712863 -1.876449 -1.547269 -1.214186 -0.965123 -25.927133 -1.437599 7.687073 0.000000 0.000000 0.000000 4.104818 -0.599972 -2.344002 0.810619 -3.142116 -12.033893 -4.969580 0.096948 1.699818 -13.743789 -40.295654 -43.470162 -0.146568 -57.586705 0.423117 0.000000 0.000000 0.000000 4.825632 -0.629399 -1.856487 -5.185218 13.823698 -6.198041 -0.339224 0.234246 0.163814 -37.586094 28.296396 33.351428 179.939899 65.144350 -179.869822 0.000000 0.000000 0.000000 
